<?xml version="1.0" encoding="utf-8"?>
<!-- Generator: Adobe Illustrator 22.1.0, SVG Export Plug-In . SVG Version: 6.00 Build 0)  -->
<svg version="1.1" id="Layer_1" xmlns="http://www.w3.org/2000/svg" xmlns:xlink="http://www.w3.org/1999/xlink" x="0px" y="0px"
	 viewBox="0 0 447.8 402.8" style="enable-background:new 0 0 447.8 402.8;" xml:space="preserve">
<path d="M445.5,219.8c-3.2-6.8-9.6-11.9-19.1-15.2c-14-4.9-24.5-8.3-33.1-8.5c-0.1,0-0.1,0-0.2,0c-1,0-2.1,0.1-3.1,0.4
	c-0.5-0.6-1.1-1.2-1.7-1.8c-5.8-6.2-11.5-12.2-17.6-16.5c-6-13.8-18.1-23.3-32-23.3c-1.5,0-3.1,0.1-4.5,0.4
	c4.5-10.3,6.1-19.1,6.5-25.2c0.3-3.2,0.4-6.5,0.4-9.8c0-0.7,0-1.4,0-2.2c0-31.6-12.3-61.2-34.6-83.5C284.2,12.3,254.5,0,223,0h-0.1
	c-0.9,0-1.9,0-3,0h-0.1c-1,0-1.9,0.1-2.9,0.1h-0.1c-0.9,0-1.9,0.1-2.8,0.2h-0.1c-11.4,0.9-22.7,3.4-33.3,7.5L176,9.6l0.1,0.3
	c-11.1,4.9-21.1,11.5-30,19.3V29l-0.7,0.9c-19.1,17.3-32.5,40.7-37.9,67c-0.1,0.3-0.1,0.6-0.2,0.9c-0.1,0.3-0.1,0.7-0.2,1
	c-0.6,3.4-1.1,6.8-1.5,10.2c0,0.1,0,0.1,0,0.2c-0.1,0.6-0.1,1.2-0.2,1.8c0,0.2,0,0.5-0.1,0.7c0,0.5-0.1,1-0.1,1.5
	c0,0.4-0.1,0.8-0.1,1.2s0,0.7-0.1,1.1c0,0.8-0.1,1.6-0.1,2.4c-0.5,13.5,1.8,26.3,6.5,37.1c-0.8-0.1-1.6-0.1-2.4-0.1
	c-13.9,0-26,9.5-32,23.3c-6,4.3-11.7,10.3-17.6,16.5c-0.6,0.6-1.1,1.2-1.7,1.8c-1.1-0.3-2.2-0.4-3.3-0.4c-8.5,0.1-19.1,3.6-33.1,8.5
	c-9.4,3.3-15.9,8.4-19.1,15.2c-2.8,6-3,13.2-0.4,20.3c6.3,17.3,36.2,17.7,52.3,18c0.1,0,0.2,0,0.2,0c3.1,0,6-0.9,8.6-2.5
	c1.7,0.4,3.6,0.6,5.6,0.7c0.7,0,1.4,0.1,2.2,0.1c0.5,0,1,0,1.5,0c0,0.2-0.1,0.3-0.1,0.5c0,0.1,0,0.3-0.1,0.4v0.3
	c-0.1,0.8-0.2,1.7-0.3,2.5c0,0.3-0.1,0.5-0.1,0.8v0.3c-0.1,0.7-0.2,1.4-0.2,2.1c0,0.4-0.1,0.8-0.1,1.2c-0.1,0.7-0.1,1.4-0.2,2.1v0.1
	c0,0.4-0.1,0.7-0.1,1.1c-0.1,0.7-0.1,1.5-0.2,2.2v0.4c0,0.2,0,0.4,0,0.7c-0.1,1.1-0.1,2.2-0.2,3.3c-0.9,23.8,5,45.8,16.7,61.9
	l0.5,0.7l0.2,0.2c-0.1,2.6,0.1,5.2,0.4,7.7c2.3,15.7,9.7,27.2,22.5,35.2c4.1,2.5,8.4,4.6,12.9,6.2c7.2,4.7,16.8,8.3,29.1,11
	c16.5,3.7,31.2,5.5,45.2,5.5c4.8,0,9.6-0.2,14.3-0.6c4-0.4,7.8-1.5,11.2-3.1c1.2,0.2,2.5,0.4,3.8,0.5c4.1,0.3,8.2,0.5,12.4,0.5
	c15.1,0,30.8-2,48.6-6.2c13.4-3.2,23.6-7.4,31.2-12.8c1.5-1.1,2.9-2.3,4.3-3.5c3.2-1.9,6.3-4,9.2-6.2c12.8-9.9,20.1-21.6,21.2-33.9
	c0-0.5,0.1-0.9,0.1-1.4c11.6-16.1,17.5-38,16.6-61.7c0-1.1-0.1-2.2-0.2-3.3c0-0.2,0-0.4,0-0.6v-0.4c0-0.7-0.1-1.5-0.2-2.2
	c0-0.3-0.1-0.6-0.1-1v-0.2c-0.1-0.7-0.1-1.4-0.2-2.1c0-0.4-0.1-0.8-0.1-1.2c-0.1-0.7-0.2-1.4-0.2-2.1V261c0-0.3-0.1-0.5-0.1-0.8
	c-0.1-0.8-0.2-1.7-0.3-2.5v-0.3c0-0.1,0-0.3-0.1-0.4c-0.1-0.4-0.1-0.7-0.2-1.1c2.7,0.4,5.3,0.6,7.7,0.6c0.7,0,1.5,0,2.2-0.1
	c2-0.1,3.9-0.3,5.6-0.7c2.5,1.6,5.4,2.5,8.6,2.5c0.1,0,0.2,0,0.2,0c16.1-0.2,45.9-0.7,52.3-18C448.5,233,448.3,225.8,445.5,219.8z
	 M436.1,236.6c-3.5,9.5-26.3,10.8-38.7,11.1c-1.5,0-2.8,0.1-4,0.1c-0.7,0-1.5-0.1-2.4-0.5c-1.1-0.5-2.2-1.4-3.3-3.3
	c-0.1-0.2-0.2-0.3-0.3-0.5c-4.1-7.8-3.7-23.4,0.9-32.2c0.2-0.4,0.4-0.7,0.6-1c0.5-0.8,1.5-2.4,2.8-3.2c0.4-0.3,0.9-0.5,1.4-0.5l0,0
	c1.4,0,3,0.2,4.7,0.5c6.5,1.1,14.8,3.8,25.1,7.4c6.7,2.3,11.1,5.6,13.1,9.8C438.2,228.7,437.3,233.4,436.1,236.6z M358.7,254.8
	l0.1,0.6c0.2,1,0.3,2,0.5,3l0.1,0.6c0.1,0.8,0.2,1.6,0.3,2.3c0,0.2,0.1,0.4,0.1,0.7v0.4c0.1,0.7,0.2,1.3,0.2,2
	c0,0.4,0.1,0.8,0.1,1.1c0.1,0.6,0.1,1.3,0.2,1.9v0.2c0,0.3,0.1,0.6,0.1,0.9c0.1,0.7,0.1,1.4,0.1,2.1l0.1,1l0,0c0.1,1,0.1,2,0.1,3
	c0.6,16.2-2.4,31.9-8.5,44.7c-3-9.5-8.8-18.3-16.4-24.5c-12.4-10-28.5-12.7-45.5-7.6c-16.1,4.9-24.6,14.6-29.6,25.5
	c-6.7,4-12.2,9.2-17.7,14.2c-4.7,4.3-9.1,8.3-14.1,11.7c-5,3.4-9.3,5.6-12.9,7.3c-1.7-1-3.5-2-5.5-3.3c-5-3.2-9.3-7.1-13.9-11.2
	c-5.4-4.9-10.9-9.8-17.5-13.6c-8.8-16.7-23.2-26-41.5-26.2c-15.1-0.2-28.5,5.7-38,16.4c-3.8,4.3-6.7,9.2-8.6,14.4
	c-7.1-13.3-10.7-30.2-10-47.8c0-1,0.1-2,0.1-3.1c0-0.2,0-0.4,0-0.6v-0.4c0-0.7,0.1-1.4,0.1-2.1c0-0.3,0.1-0.7,0.1-1v-0.1
	c0.1-0.6,0.1-1.3,0.2-1.9c0-0.4,0.1-0.8,0.1-1.1c0.1-0.7,0.1-1.3,0.2-2V262c0-0.2,0.1-0.5,0.1-0.7c0.1-0.8,0.2-1.6,0.3-2.3l0.1-0.6
	c0.1-1,0.3-2,0.5-3l0.1-0.4c9.7-2.2,20-6.8,28-13.8c18.9-1.3,33.9-20.1,33.9-43c0-7.2-1.5-14-4.1-20l4.2,1.4v-0.3
	c19.9,5.4,46.9,8.5,76.2,8.5c0.7,0,1.3,0,2,0c0.5,0,1,0,1.5,0c28.8,0,55.4-3,75.3-8.3l0,0l0.6-0.2c2.3-0.6,4.6-1.3,6.7-2
	c-2.8,6.2-4.5,13.3-4.5,20.8c0,22.9,15,41.7,33.9,43c6.3,5.5,14,9.5,21.7,12.1C358.5,253.7,358.6,254.3,358.7,254.8z M209.2,392
	c-6.2,0.4-12.5,0.5-19.1,0.2c-1.7-0.1-3.5-0.2-5.2-0.3c-9.3-0.8-19-2.3-29.6-4.6c-11.5-2.6-20.3-6-26.6-10.3
	c-7.5-5.2-11.4-11.7-12.1-19.8c-0.2-2.5-0.2-5-0.1-7.3c0.1-1.8,0.4-3.5,0.8-5.2c0.4-1.7,0.9-3.4,1.5-5c1.2-3.1,2.8-5.8,4.9-8.2
	c5.4-6.3,13.5-9.8,24.1-10.5c1.2-0.1,2.4-0.1,3.5-0.1c8.1,0,14.4,1.7,20,4.6c2.6,1.3,5,2.8,7.4,4.5s4.7,3.7,7,5.7
	c1.4,1.2,2.7,2.4,4.1,3.6c4.6,4.1,9.3,8.3,14.8,11.9c0.1,0.1,0.2,0.1,0.3,0.2c0.2,0.1,0.3,0.2,0.5,0.3c1.7,1.1,3.3,2.1,4.9,3
	c1.2,0.7,2.3,1.3,3.3,1.8c0.7,0.4,1.5,0.8,2.2,1.1c2,1,3.8,1.8,5.3,2.5c1.3,0.6,2.5,1.1,3.4,1.6c4.5,2.2,5.5,3.5,6,8.5
	c0.6,7.1-2.7,13.7-8.2,17.7c-1.7,1.3-3.7,2.3-5.8,3c-1.5,0.5-3.1,0.8-4.8,1C210.9,391.8,210,391.9,209.2,392z M235.1,389.5
	c4.2-5.7,6.4-12.8,5.7-20.3c-0.3-3.2-0.9-5.7-1.9-7.8c-0.9-2.1-2.2-3.7-3.7-5.1c-2.1-2-4.8-3.3-7.7-4.7c0.2-0.1,0.4-0.2,0.6-0.4
	c2-1.2,4.2-2.5,6.5-4c5.7-3.8,10.6-8.3,15.3-12.7c1.8-1.6,3.5-3.2,5.2-4.8c2.2-1.9,4.4-3.8,6.7-5.5c2.2-1.6,4.5-3.1,6.9-4.3
	c5.9-3.1,12.7-5,21.3-5c0.9,0,1.9,0,2.9,0.1c10.9,0.5,19.3,4,25,10.4c3.2,3.6,5.5,8.2,6.7,13.4c0.4,1.7,0.7,3.4,0.8,5.2
	c0.2,1.7,0.2,3.5,0.2,5.4c0,0.8-0.1,1.6-0.1,2.5c-0.5,6.7-3.2,12.4-8.1,17.2c-6.5,6.2-16.8,11-31.4,14.4
	c-10.6,2.5-20.4,4.2-29.8,5.1c-1.7,0.2-3.5,0.3-5.2,0.4C245.7,389.5,240.4,389.7,235.1,389.5z M50.4,247.7
	c-12.4-0.3-35.2-1.6-38.7-11.1c-1.2-3.2-2.1-7.9,0-12.3c2-4.2,6.4-7.5,13.1-9.8c10.4-3.6,18.6-6.4,25.1-7.4c1.7-0.3,3.3-0.4,4.7-0.5
	l0,0c0.5,0,1,0.2,1.4,0.5c1.3,0.8,2.3,2.4,2.8,3.2c0.2,0.3,0.4,0.7,0.6,1c4.5,8.9,5,24.4,0.9,32.2c-0.1,0.2-0.2,0.3-0.3,0.5
	c-1.1,1.9-2.2,2.8-3.3,3.3c-0.9,0.4-1.7,0.5-2.4,0.5C53.3,247.7,51.9,247.7,50.4,247.7z M67.9,205c-0.5-0.9-1-1.6-1.6-2.4
	c0.2-0.3,0.5-0.5,0.7-0.8c2.2-2.3,4.1-4.4,6-6.2c2.1-2.1,4-3.9,5.8-5.5c2.4-2.1,4.5-3.7,6.6-5c3.1-1.9,5.9-2.8,8.8-2.8
	c2.6,0,5.1,0.7,7.9,2.2c0.8,0.4,1.6,0.8,2.4,1.3c0.7,0.4,1.4,0.9,2,1.4c1.4,1.1,2.6,2.3,3.7,3.7c2.7,3.4,4.5,7.6,5.3,12.4
	c1.4,9.4-1.4,19.2-7.6,26.4c-0.3,0.3-0.6,0.7-0.9,1c-1.5,1.6-3.1,3-4.8,4.3s-3.5,2.5-5.4,3.6c-3.6,2.1-7.5,3.7-11.4,4.9
	c-1.9,0.6-3.8,1.1-5.7,1.5s-3.7,0.6-5.5,0.8c-1.3,0.1-2.5,0.2-3.7,0.1C75.7,233.7,73.7,215,67.9,205z M184.4,17.6l4.3-1.7
	c8.4-2.8,17.1-4.6,26-5.3h0.1c0.9-0.1,1.7-0.1,2.6-0.2h0.1c0.9,0,1.8-0.1,2.7-0.1h0.1c0.9,0,1.8,0,2.7,0h0.2
	c30.6,0,58.3,12.9,77.9,33.4l0.2,1.4c1.7,12,2.9,24.5,3.4,37.8c-2.6,1.3-5.6,2.6-8.8,3.8c-1.6,0.6-3.3,1.2-5.1,1.7
	c-1.7,0.5-3.5,1-5.3,1.5c-36.3,9.7-94.2,10.8-128.4-0.9c-1.8-0.6-3.5-1.2-5.1-1.9c-1.7-0.7-3.3-1.4-4.8-2.2
	c-2.4-1.2-4.7-2.5-6.7-3.9c0.5-12.2,1.5-23.5,3.1-34.5v-0.3C154.7,33.8,168.5,23.9,184.4,17.6z M329.8,118.3c0.5,13.8-2.4,27-8,37.4
	c-0.9,1.7-1.9,3.2-2.9,4.7c-0.1,0.1-0.3,0.2-0.4,0.3c-1.3,0.9-2.9,1.7-4.5,2.5c-0.6,0.3-1.2,0.6-1.9,0.9c0.1-1.3,0.3-2.6,0.4-4
	c0.3-3.7,0.7-7.3,0.9-10.8c0.2-2.9,0.4-5.7,0.6-8.5c0.1-1.3,0.2-2.6,0.2-3.8c0.5-8.9,0.9-17.5,1-25.9c0.2-12.4,0-24.1-0.7-35.3
	c-0.2-4.1-0.5-8.2-0.9-12.2C323.6,79.9,329.1,98.6,329.8,118.3z M293.4,118.6c0.9,0,1.7,0.3,2.3,0.9c0.6,0.6,1,1.4,1,2.3
	c0,0.9-0.3,1.7-0.9,2.3c-5.2,5.4-13.1,8.5-21.7,8.5h-0.2c-9.2-0.1-17.9-3.7-23.8-9.9c-1.2-1.3-1.2-3.4,0.1-4.7
	c1.3-1.2,3.4-1.2,4.7,0.1c4.7,4.9,11.6,7.8,19.1,7.8h0.2c6.8,0,13-2.4,17-6.5C291.7,119,292.6,118.6,293.4,118.6z M303.3,146.4
	c-0.5,7.1-1.2,14.5-2,22c-19.3,5.7-47.6,9.1-78,8.9c-31.1,0.2-60-3.4-79.4-9.2c-0.8-7.4-1.4-14.6-2-21.6
	C178,158.5,266.8,159.8,303.3,146.4z M115.3,118.3c0-1.1,0.1-2.2,0.2-3.2c0-0.2,0-0.4,0-0.7c0.1-1,0.1-1.9,0.2-2.9
	c0-0.3,0.1-0.7,0.1-1c0.1-0.9,0.2-1.8,0.3-2.7c0-0.3,0.1-0.6,0.1-1c0.1-0.8,0.2-1.6,0.3-2.3c0-0.2,0.1-0.5,0.1-0.7
	c0.2-1.1,0.4-2.2,0.6-3.3l0,0c0.2-0.8,0.3-1.6,0.5-2.4c2.6-11.8,7-23,13.3-33.3c-0.3,3.1-0.5,6.3-0.7,9.6
	c-0.7,11.3-0.9,23.3-0.6,36.8c0.1,5.6,0.3,11.3,0.5,17.1c0.2,4.4,0.5,8.9,0.8,13.4c0,0.2,0,0.4,0,0.6c0.3,3.9,0.6,7.8,0.9,11.8
	c0.3,3.3,0.6,6.7,0.9,10.1c-1.6-0.7-3.1-1.5-4.5-2.2l0,0c-0.8-0.5-1.6-1-2.4-1.4c-0.1-0.1-0.2-0.3-0.3-0.4c-0.4-0.7-0.9-1.3-1.3-2
	c-0.4-0.6-0.7-1.2-1.1-1.8c0-0.1-0.1-0.2-0.1-0.3c-0.4-0.7-0.8-1.5-1.2-2.2c-0.2-0.5-0.5-1-0.7-1.5c-0.8-1.8-1.6-3.7-2.2-5.6
	c0,0,0,0,0-0.1c-1.3-3.7-2.2-7.5-2.9-11.6c-0.8-4.7-1.2-9.6-1.1-14.5C115.2,119.8,115.2,119.1,115.3,118.3z M196,125.1
	c-5.2,5.4-13.1,8.5-21.7,8.5h-0.2c-9.2-0.1-17.9-3.7-23.8-9.9c-1.2-1.3-1.2-3.4,0.1-4.7c1.3-1.2,3.4-1.2,4.7,0.1
	c4.7,4.9,11.6,7.8,19.1,7.8c6.8,0.1,13.1-2.3,17.1-6.5c0.6-0.6,1.4-1,2.3-1s1.7,0.3,2.4,0.9c0.6,0.6,1,1.4,1,2.3
	C196.9,123.6,196.6,124.5,196,125.1z M367.3,244.9c-1.9-0.4-3.8-0.9-5.7-1.5c-2-0.7-4-1.4-5.9-2.3c-1.6-0.7-3.1-1.5-4.7-2.4
	c-1.9-1.1-3.7-2.3-5.4-3.6c-1.7-1.3-3.3-2.8-4.8-4.3c-0.3-0.3-0.6-0.7-0.9-1c-6.2-7.1-9-17-7.6-26.4c0.4-2.9,1.3-5.5,2.4-7.9
	c0.8-1.7,1.8-3.3,3-4.7c1.1-1.4,2.4-2.6,3.8-3.6c0.6-0.4,1.2-0.9,1.8-1.2c3.8-2.3,7.1-3.5,10.3-3.5c2.8,0,5.7,0.9,8.8,2.8
	c2,1.2,4.2,2.9,6.6,5c1.8,1.6,3.7,3.4,5.8,5.5c1.9,1.9,3.9,3.9,6,6.2c0.2,0.3,0.5,0.5,0.7,0.8c-0.6,0.7-1.1,1.5-1.6,2.4
	c-5.8,10-7.9,28.7-2.7,41C374.2,246.1,370.9,245.7,367.3,244.9z"/>
<path d="M445.5,219.8c-3.2-6.8-9.6-11.9-19.1-15.2c-14-4.9-24.5-8.3-33.1-8.5c-0.1,0-0.1,0-0.2,0c-1,0-2.1,0.1-3.1,0.4
	c-0.5-0.6-1.1-1.2-1.7-1.8c-5.8-6.2-11.5-12.2-17.6-16.5c-6-13.8-18.1-23.3-32-23.3c-1.5,0-3.1,0.1-4.5,0.4
	c4.5-10.3,6.1-19.1,6.5-25.2c0.3-3.2,0.4-6.5,0.4-9.8c0-0.7,0-1.4,0-2.2c0-31.6-12.3-61.2-34.6-83.5C284.2,12.3,254.5,0,223,0h-0.1
	c-0.9,0-1.9,0-3,0h-0.1c-1,0-1.9,0.1-2.9,0.1h-0.1c-0.9,0-1.9,0.1-2.8,0.2h-0.1c-11.4,0.9-22.7,3.4-33.3,7.5L176,9.6l0.1,0.3
	c-11.1,4.9-21.1,11.5-30,19.3V29l-0.7,0.9c-19.1,17.3-32.5,40.7-37.9,67c-0.1,0.3-0.1,0.6-0.2,0.9c-0.1,0.3-0.1,0.7-0.2,1
	c-0.6,3.4-1.1,6.8-1.5,10.2c0,0.1,0,0.1,0,0.2c-0.1,0.6-0.1,1.2-0.2,1.8c0,0.2,0,0.5-0.1,0.7c0,0.5-0.1,1-0.1,1.5
	c0,0.4-0.1,0.8-0.1,1.2s0,0.7-0.1,1.1c0,0.8-0.1,1.6-0.1,2.4c-0.5,13.5,1.8,26.3,6.5,37.1c-0.8-0.1-1.6-0.1-2.4-0.1
	c-13.9,0-26,9.5-32,23.3c-6,4.3-11.7,10.3-17.6,16.5c-0.6,0.6-1.1,1.2-1.7,1.8c-1.1-0.3-2.2-0.4-3.3-0.4c-8.5,0.1-19.1,3.6-33.1,8.5
	c-9.4,3.3-15.9,8.4-19.1,15.2c-2.8,6-3,13.2-0.4,20.3c6.3,17.3,36.2,17.7,52.3,18c0.1,0,0.2,0,0.2,0c3.1,0,6-0.9,8.6-2.5
	c1.7,0.4,3.6,0.6,5.6,0.7c0.7,0,1.4,0.1,2.2,0.1c0.5,0,1,0,1.5,0c0,0.2-0.1,0.3-0.1,0.5c0,0.1,0,0.3-0.1,0.4v0.3
	c-0.1,0.8-0.2,1.7-0.3,2.5c0,0.3-0.1,0.5-0.1,0.8v0.3c-0.1,0.7-0.2,1.4-0.2,2.1c0,0.4-0.1,0.8-0.1,1.2c-0.1,0.7-0.1,1.4-0.2,2.1v0.1
	c0,0.4-0.1,0.7-0.1,1.1c-0.1,0.7-0.1,1.5-0.2,2.2v0.4c0,0.2,0,0.4,0,0.7c-0.1,1.1-0.1,2.2-0.2,3.3c-0.9,23.8,5,45.8,16.7,61.9
	l0.5,0.7l0.2,0.2c-0.1,2.6,0.1,5.2,0.4,7.7c2.3,15.7,9.7,27.2,22.5,35.2c4.1,2.5,8.4,4.6,12.9,6.2c7.2,4.7,16.8,8.3,29.1,11
	c16.5,3.7,31.2,5.5,45.2,5.5c4.8,0,9.6-0.2,14.3-0.6c4-0.4,7.8-1.5,11.2-3.1c1.2,0.2,2.5,0.4,3.8,0.5c4.1,0.3,8.2,0.5,12.4,0.5
	c15.1,0,30.8-2,48.6-6.2c13.4-3.2,23.6-7.4,31.2-12.8c1.5-1.1,2.9-2.3,4.3-3.5c3.2-1.9,6.3-4,9.2-6.2c12.8-9.9,20.1-21.6,21.2-33.9
	c0-0.5,0.1-0.9,0.1-1.4c11.6-16.1,17.5-38,16.6-61.7c0-1.1-0.1-2.2-0.2-3.3c0-0.2,0-0.4,0-0.6v-0.4c0-0.7-0.1-1.5-0.2-2.2
	c0-0.3-0.1-0.6-0.1-1v-0.2c-0.1-0.7-0.1-1.4-0.2-2.1c0-0.4-0.1-0.8-0.1-1.2c-0.1-0.7-0.2-1.4-0.2-2.1V261c0-0.3-0.1-0.5-0.1-0.8
	c-0.1-0.8-0.2-1.7-0.3-2.5v-0.3c0-0.1,0-0.3-0.1-0.4c-0.1-0.4-0.1-0.7-0.2-1.1c2.7,0.4,5.3,0.6,7.7,0.6c0.7,0,1.5,0,2.2-0.1
	c2-0.1,3.9-0.3,5.6-0.7c2.5,1.6,5.4,2.5,8.6,2.5c0.1,0,0.2,0,0.2,0c16.1-0.2,45.9-0.7,52.3-18C448.5,233,448.3,225.8,445.5,219.8z
	 M436.1,236.6c-3.5,9.5-26.3,10.8-38.7,11.1c-1.5,0-2.8,0.1-4,0.1c-0.7,0-1.5-0.1-2.4-0.5c-1.1-0.5-2.2-1.4-3.3-3.3
	c-0.1-0.2-0.2-0.3-0.3-0.5c-4.1-7.8-3.7-23.4,0.9-32.2c0.2-0.4,0.4-0.7,0.6-1c0.5-0.8,1.5-2.4,2.8-3.2c0.4-0.3,0.9-0.5,1.4-0.5l0,0
	c1.4,0,3,0.2,4.7,0.5c6.5,1.1,14.8,3.8,25.1,7.4c6.7,2.3,11.1,5.6,13.1,9.8C438.2,228.7,437.3,233.4,436.1,236.6z M358.7,254.8
	l0.1,0.6c0.2,1,0.3,2,0.5,3l0.1,0.6c0.1,0.8,0.2,1.6,0.3,2.3c0,0.2,0.1,0.4,0.1,0.7v0.4c0.1,0.7,0.2,1.3,0.2,2
	c0,0.4,0.1,0.8,0.1,1.1c0.1,0.6,0.1,1.3,0.2,1.9v0.2c0,0.3,0.1,0.6,0.1,0.9c0.1,0.7,0.1,1.4,0.1,2.1l0.1,1l0,0c0.1,1,0.1,2,0.1,3
	c0.6,16.2-2.4,31.9-8.5,44.7c-3-9.5-8.8-18.3-16.4-24.5c-12.4-10-28.5-12.7-45.5-7.6c-16.1,4.9-24.6,14.6-29.6,25.5
	c-6.7,4-12.2,9.2-17.7,14.2c-4.7,4.3-9.1,8.3-14.1,11.7c-5,3.4-9.3,5.6-12.9,7.3c-1.7-1-3.5-2-5.5-3.3c-5-3.2-9.3-7.1-13.9-11.2
	c-5.4-4.9-10.9-9.8-17.5-13.6c-8.8-16.7-23.2-26-41.5-26.2c-15.1-0.2-28.5,5.7-38,16.4c-3.8,4.3-6.7,9.2-8.6,14.4
	c-7.1-13.3-10.7-30.2-10-47.8c0-1,0.1-2,0.1-3.1c0-0.2,0-0.4,0-0.6v-0.4c0-0.7,0.1-1.4,0.1-2.1c0-0.3,0.1-0.7,0.1-1v-0.1
	c0.1-0.6,0.1-1.3,0.2-1.9c0-0.4,0.1-0.8,0.1-1.1c0.1-0.7,0.1-1.3,0.2-2V262c0-0.2,0.1-0.5,0.1-0.7c0.1-0.8,0.2-1.6,0.3-2.3l0.1-0.6
	c0.1-1,0.3-2,0.5-3l0.1-0.4c9.7-2.2,20-6.8,28-13.8c18.9-1.3,33.9-20.1,33.9-43c0-7.2-1.5-14-4.1-20l4.2,1.4v-0.3
	c19.9,5.4,46.9,8.5,76.2,8.5c0.7,0,1.3,0,2,0c0.5,0,1,0,1.5,0c28.8,0,55.4-3,75.3-8.3l0,0l0.6-0.2c2.3-0.6,4.6-1.3,6.7-2
	c-2.8,6.2-4.5,13.3-4.5,20.8c0,22.9,15,41.7,33.9,43c6.3,5.5,14,9.5,21.7,12.1C358.5,253.7,358.6,254.3,358.7,254.8z M209.2,392
	c-6.2,0.4-12.5,0.5-19.1,0.2c-1.7-0.1-3.5-0.2-5.2-0.3c-9.3-0.8-19-2.3-29.6-4.6c-11.5-2.6-20.3-6-26.6-10.3
	c-7.5-5.2-11.4-11.7-12.1-19.8c-0.2-2.5-0.2-5-0.1-7.3c0.1-1.8,0.4-3.5,0.8-5.2c0.4-1.7,0.9-3.4,1.5-5c1.2-3.1,2.8-5.8,4.9-8.2
	c5.4-6.3,13.5-9.8,24.1-10.5c1.2-0.1,2.4-0.1,3.5-0.1c8.1,0,14.4,1.7,20,4.6c2.6,1.3,5,2.8,7.4,4.5s4.7,3.7,7,5.7
	c1.4,1.2,2.7,2.4,4.1,3.6c4.6,4.1,9.3,8.3,14.8,11.9c0.1,0.1,0.2,0.1,0.3,0.2c0.2,0.1,0.3,0.2,0.5,0.3c1.7,1.1,3.3,2.1,4.9,3
	c1.2,0.7,2.3,1.3,3.3,1.8c0.7,0.4,1.5,0.8,2.2,1.1c2,1,3.8,1.8,5.3,2.5c1.3,0.6,2.5,1.1,3.4,1.6c4.5,2.2,5.5,3.5,6,8.5
	c0.6,7.1-2.7,13.7-8.2,17.7c-1.7,1.3-3.7,2.3-5.8,3c-1.5,0.5-3.1,0.8-4.8,1C210.9,391.8,210,391.9,209.2,392z M235.1,389.5
	c4.2-5.7,6.4-12.8,5.7-20.3c-0.3-3.2-0.9-5.7-1.9-7.8c-0.9-2.1-2.2-3.7-3.7-5.1c-2.1-2-4.8-3.3-7.7-4.7c0.2-0.1,0.4-0.2,0.6-0.4
	c2-1.2,4.2-2.5,6.5-4c5.7-3.8,10.6-8.3,15.3-12.7c1.8-1.6,3.5-3.2,5.2-4.8c2.2-1.9,4.4-3.8,6.7-5.5c2.2-1.6,4.5-3.1,6.9-4.3
	c5.9-3.1,12.7-5,21.3-5c0.9,0,1.9,0,2.9,0.1c10.9,0.5,19.3,4,25,10.4c3.2,3.6,5.5,8.2,6.7,13.4c0.4,1.7,0.7,3.4,0.8,5.2
	c0.2,1.7,0.2,3.5,0.2,5.4c0,0.8-0.1,1.6-0.1,2.5c-0.5,6.7-3.2,12.4-8.1,17.2c-6.5,6.2-16.8,11-31.4,14.4
	c-10.6,2.5-20.4,4.2-29.8,5.1c-1.7,0.2-3.5,0.3-5.2,0.4C245.7,389.5,240.4,389.7,235.1,389.5z M50.4,247.7
	c-12.4-0.3-35.2-1.6-38.7-11.1c-1.2-3.2-2.1-7.9,0-12.3c2-4.2,6.4-7.5,13.1-9.8c10.4-3.6,18.6-6.4,25.1-7.4c1.7-0.3,3.3-0.4,4.7-0.5
	l0,0c0.5,0,1,0.2,1.4,0.5c1.3,0.8,2.3,2.4,2.8,3.2c0.2,0.3,0.4,0.7,0.6,1c4.5,8.9,5,24.4,0.9,32.2c-0.1,0.2-0.2,0.3-0.3,0.5
	c-1.1,1.9-2.2,2.8-3.3,3.3c-0.9,0.4-1.7,0.5-2.4,0.5C53.3,247.7,51.9,247.7,50.4,247.7z M67.9,205c-0.5-0.9-1-1.6-1.6-2.4
	c0.2-0.3,0.5-0.5,0.7-0.8c2.2-2.3,4.1-4.4,6-6.2c2.1-2.1,4-3.9,5.8-5.5c2.4-2.1,4.5-3.7,6.6-5c3.1-1.9,5.9-2.8,8.8-2.8
	c2.6,0,5.1,0.7,7.9,2.2c0.8,0.4,1.6,0.8,2.4,1.3c0.7,0.4,1.4,0.9,2,1.4c1.4,1.1,2.6,2.3,3.7,3.7c2.7,3.4,4.5,7.6,5.3,12.4
	c1.4,9.4-1.4,19.2-7.6,26.4c-0.3,0.3-0.6,0.7-0.9,1c-1.5,1.6-3.1,3-4.8,4.3s-3.5,2.5-5.4,3.6c-3.6,2.1-7.5,3.7-11.4,4.9
	c-1.9,0.6-3.8,1.1-5.7,1.5s-3.7,0.6-5.5,0.8c-1.3,0.1-2.5,0.2-3.7,0.1C75.7,233.7,73.7,215,67.9,205z M184.4,17.6l4.3-1.7
	c8.4-2.8,17.1-4.6,26-5.3h0.1c0.9-0.1,1.7-0.1,2.6-0.2h0.1c0.9,0,1.8-0.1,2.7-0.1h0.1c0.9,0,1.8,0,2.7,0h0.2
	c30.6,0,58.3,12.9,77.9,33.4l0.2,1.4c1.7,12,2.9,24.5,3.4,37.8c-2.6,1.3-5.6,2.6-8.8,3.8c-1.6,0.6-3.3,1.2-5.1,1.7
	c-1.7,0.5-3.5,1-5.3,1.5c-36.3,9.7-94.2,10.8-128.4-0.9c-1.8-0.6-3.5-1.2-5.1-1.9c-1.7-0.7-3.3-1.4-4.8-2.2
	c-2.4-1.2-4.7-2.5-6.7-3.9c0.5-12.2,1.5-23.5,3.1-34.5v-0.3C154.7,33.8,168.5,23.9,184.4,17.6z M329.8,118.3c0.5,13.8-2.4,27-8,37.4
	c-0.9,1.7-1.9,3.2-2.9,4.7c-0.1,0.1-0.3,0.2-0.4,0.3c-1.3,0.9-2.9,1.7-4.5,2.5c-0.6,0.3-1.2,0.6-1.9,0.9c0.1-1.3,0.3-2.6,0.4-4
	c0.3-3.7,0.7-7.3,0.9-10.8c0.2-2.9,0.4-5.7,0.6-8.5c0.1-1.3,0.2-2.6,0.2-3.8c0.5-8.9,0.9-17.5,1-25.9c0.2-12.4,0-24.1-0.7-35.3
	c-0.2-4.1-0.5-8.2-0.9-12.2C323.6,79.9,329.1,98.6,329.8,118.3z M293.4,118.6c0.9,0,1.7,0.3,2.3,0.9c0.6,0.6,1,1.4,1,2.3
	c0,0.9-0.3,1.7-0.9,2.3c-5.2,5.4-13.1,8.5-21.7,8.5h-0.2c-9.2-0.1-17.9-3.7-23.8-9.9c-1.2-1.3-1.2-3.4,0.1-4.7
	c1.3-1.2,3.4-1.2,4.7,0.1c4.7,4.9,11.6,7.8,19.1,7.8h0.2c6.8,0,13-2.4,17-6.5C291.7,119,292.6,118.6,293.4,118.6z M303.3,146.4
	c-0.5,7.1-1.2,14.5-2,22c-19.3,5.7-47.6,9.1-78,8.9c-31.1,0.2-60-3.4-79.4-9.2c-0.8-7.4-1.4-14.6-2-21.6
	C178,158.5,266.8,159.8,303.3,146.4z M115.3,118.3c0-1.1,0.1-2.2,0.2-3.2c0-0.2,0-0.4,0-0.7c0.1-1,0.1-1.9,0.2-2.9
	c0-0.3,0.1-0.7,0.1-1c0.1-0.9,0.2-1.8,0.3-2.7c0-0.3,0.1-0.6,0.1-1c0.1-0.8,0.2-1.6,0.3-2.3c0-0.2,0.1-0.5,0.1-0.7
	c0.2-1.1,0.4-2.2,0.6-3.3l0,0c0.2-0.8,0.3-1.6,0.5-2.4c2.6-11.8,7-23,13.3-33.3c-0.3,3.1-0.5,6.3-0.7,9.6
	c-0.7,11.3-0.9,23.3-0.6,36.8c0.1,5.6,0.3,11.3,0.5,17.1c0.2,4.4,0.5,8.9,0.8,13.4c0,0.2,0,0.4,0,0.6c0.3,3.9,0.6,7.8,0.9,11.8
	c0.3,3.3,0.6,6.7,0.9,10.1c-1.6-0.7-3.1-1.5-4.5-2.2l0,0c-0.8-0.5-1.6-1-2.4-1.4c-0.1-0.1-0.2-0.3-0.3-0.4c-0.4-0.7-0.9-1.3-1.3-2
	c-0.4-0.6-0.7-1.2-1.1-1.8c0-0.1-0.1-0.2-0.1-0.3c-0.4-0.7-0.8-1.5-1.2-2.2c-0.2-0.5-0.5-1-0.7-1.5c-0.8-1.8-1.6-3.7-2.2-5.6
	c0,0,0,0,0-0.1c-1.3-3.7-2.2-7.5-2.9-11.6c-0.8-4.7-1.2-9.6-1.1-14.5C115.2,119.8,115.2,119.1,115.3,118.3z M196,125.1
	c-5.2,5.4-13.1,8.5-21.7,8.5h-0.2c-9.2-0.1-17.9-3.7-23.8-9.9c-1.2-1.3-1.2-3.4,0.1-4.7c1.3-1.2,3.4-1.2,4.7,0.1
	c4.7,4.9,11.6,7.8,19.1,7.8c6.8,0.1,13.1-2.3,17.1-6.5c0.6-0.6,1.4-1,2.3-1s1.7,0.3,2.4,0.9c0.6,0.6,1,1.4,1,2.3
	C196.9,123.6,196.6,124.5,196,125.1z M367.3,244.9c-1.9-0.4-3.8-0.9-5.7-1.5c-2-0.7-4-1.4-5.9-2.3c-1.6-0.7-3.1-1.5-4.7-2.4
	c-1.9-1.1-3.7-2.3-5.4-3.6c-1.7-1.3-3.3-2.8-4.8-4.3c-0.3-0.3-0.6-0.7-0.9-1c-6.2-7.1-9-17-7.6-26.4c0.4-2.9,1.3-5.5,2.4-7.9
	c0.8-1.7,1.8-3.3,3-4.7c1.1-1.4,2.4-2.6,3.8-3.6c0.6-0.4,1.2-0.9,1.8-1.2c3.8-2.3,7.1-3.5,10.3-3.5c2.8,0,5.7,0.9,8.8,2.8
	c2,1.2,4.2,2.9,6.6,5c1.8,1.6,3.7,3.4,5.8,5.5c1.9,1.9,3.9,3.9,6,6.2c0.2,0.3,0.5,0.5,0.7,0.8c-0.6,0.7-1.1,1.5-1.6,2.4
	c-5.8,10-7.9,28.7-2.7,41C374.2,246.1,370.9,245.7,367.3,244.9z"/>
</svg>
